<svg xmlns="http://www.w3.org/2000/svg" viewBox="0 0 60 60" width="60" height="60">
  <rect width="60" height="60" rx="8" fill="#2E3C43"/>
  <g transform="translate(5, 10) scale(0.082)">
    <path fill="#FFFFFF" d="M508.99,502.92c-26.33,0-52.41,0-78.74,0c0-6.38,0-12.7,0-19.38c1.63,0,3.3,0,4.96,0c16.7,0,33.39,0,50.09,0
      c3.71,0,4.43-0.65,4.43-4.31c0.01-68.18,0.01-136.36,0-204.54c0-3.62-0.72-4.24-4.5-4.24c-17.79,0-35.59-0.01-53.38-0.01
      c-0.49,0-0.97,0-1.65,0c0-6.41,0-12.67,0-19.18c26.14,0,52.36,0,78.8,0C508.99,335.01,508.99,418.82,508.99,502.92z"/>
    <path fill="#FFFFFF" d="M182.65,483.53c0,6.63,0,12.89,0,19.3c-26.3,0-52.45,0-78.82,0c0-83.82,0-167.62,0-251.63c26.22,0,52.44,0,78.81,0
      c0,6.36,0,12.61,0,19.26c-1.39,0-2.74,0-4.1,0c-16.99,0-33.99-0.01-50.98-0.01c-3.86,0-4.49,0.65-4.49,4.56
      c0,67.98,0,135.95,0,203.93c0,4.02,0.59,4.59,4.77,4.59c16.89,0,33.79,0,50.68-0.01C179.8,483.53,181.1,483.53,182.65,483.53z"/>
    <path fill="#FFFFFF" d="M227.42,281.14c6.35,0,12.51,0,18.82,0c0,64.34,0,128.54,0,192.89c-6.3,0-12.45,0-18.82,0
      C227.42,409.81,227.42,345.61,227.42,281.14z"/>
    <path fill="#FFFFFF" d="M385.4,474.04c-6.39,0-12.54,0-18.84,0c0-64.28,0-128.41,0-192.79c6.18,0,12.41,0,18.84,0
      C385.4,345.4,385.4,409.6,385.4,474.04z"/>
    <path fill="#FFFFFF" d="M296.94,458.38c0-54.38,0-108.51,0-162.8c6.29,0,12.44,0,18.83,0c0,54.18,0,108.38,0,162.8
      C309.61,458.38,303.39,458.38,296.94,458.38z"/>
    <path fill="#FFFFFF" d="M162.62,315.95c6.33,0,12.48,0,18.8,0c0,41.14,0,82.14,0,123.29c-6.27,0-12.42,0-18.8,0
      C162.62,398.23,162.62,357.23,162.62,315.95z"/>
    <path fill="#FFFFFF" d="M448.99,439.25c-6.38,0-12.53,0-18.83,0c0-41.08,0-82,0-123.19c6.18,0,12.4,0,18.83,0C448.99,357,448.99,398,448.99,439.25z"/>
  </g>
</svg>
